<svg xmlns="http://www.w3.org/2000/svg" viewBox="0 0 48 48" fill="none">
  <g transform="translate(2, 4) scale(0.58)">
    <!-- Back-left column of N -->
    <polygon points="10,65 10,20 22,14 22,59" fill="#F5C518" stroke="#B8930E" stroke-width="1"/>
    <polygon points="10,20 22,14 34,20 22,26" fill="#FFD93D" stroke="#B8930E" stroke-width="1"/>
    <polygon points="10,20 22,26 22,71 10,65" fill="#E0AE0D" stroke="#B8930E" stroke-width="1"/>
    <polygon points="22,14 34,20 34,65 22,59" fill="#F5C518" stroke="#B8930E" stroke-width="1"/>

    <!-- Diagonal of N -->
    <polygon points="22,26 34,20 55,50 43,56" fill="#FFD93D" stroke="#B8930E" stroke-width="1"/>
    <polygon points="22,26 22,35 43,65 43,56" fill="#E0AE0D" stroke="#B8930E" stroke-width="1"/>
    <polygon points="34,20 34,29 55,59 55,50" fill="#F5C518" stroke="#B8930E" stroke-width="1"/>

    <!-- Back-right column of N -->
    <polygon points="43,56 43,11 55,5 55,50" fill="#E0AE0D" stroke="#B8930E" stroke-width="1"/>
    <polygon points="43,11 55,5 67,11 55,17" fill="#FFD93D" stroke="#B8930E" stroke-width="1"/>
    <polygon points="55,5 67,11 67,56 55,50" fill="#F5C518" stroke="#B8930E" stroke-width="1"/>
    <polygon points="43,11 55,17 55,62 43,56" fill="#E0AE0D" stroke="#B8930E" stroke-width="1"/>

    <!-- Top blocks -->
    <polygon points="22,8 29,4 36,8 29,12" fill="#FFE066" stroke="#B8930E" stroke-width="0.8"/>
    <polygon points="22,8 22,14 29,18 29,12" fill="#E0AE0D" stroke="#B8930E" stroke-width="0.8"/>
    <polygon points="29,4 36,8 36,14 29,10" fill="#F5C518" stroke="#B8930E" stroke-width="0.8"/>

    <polygon points="55,0 62,4 55,8 48,4" fill="#FFE066" stroke="#B8930E" stroke-width="0.8"/>
    <polygon points="48,4 48,10 55,14 55,8" fill="#E0AE0D" stroke="#B8930E" stroke-width="0.8"/>
    <polygon points="55,0 62,4 62,10 55,6" fill="#F5C518" stroke="#B8930E" stroke-width="0.8"/>
  </g>
</svg>
